<svg width="1634" height="697" viewBox="0 0 1634 697" fill="none" xmlns="http://www.w3.org/2000/svg">
<mask id="mask0_69_62" style="mask-type:luminance" maskUnits="userSpaceOnUse" x="0" y="-112" width="1636" height="954">
<path d="M-4.16339e-05 -111.236L0 841.236L1636 841.236L1636 -111.236L-4.16339e-05 -111.236Z" fill="white"/>
</mask>
<g mask="url(#mask0_69_62)">
<path d="M-4.16339e-05 -111.236L0 841.236L1636 841.236L1636 -111.236L-4.16339e-05 -111.236Z" fill="#D7DBF6"/>
</g>
<mask id="mask1_69_62" style="mask-type:luminance" maskUnits="userSpaceOnUse" x="0" y="-112" width="1636" height="954">
<path d="M-4.16339e-05 -111.236L0 841.236L1636 841.236L1636 -111.236L-4.16339e-05 -111.236Z" fill="white"/>
</mask>
<g mask="url(#mask1_69_62)">
<path d="M579.781 -470.163L1099.67 54.8983L1106.28 48.3506L586.394 -476.711L579.781 -470.163Z" fill="#EEF1FF"/>
<path d="M296.095 -482.255L963.309 191.597L969.921 185.049L302.708 -488.802L296.095 -482.255Z" fill="#EEF1FF"/>
<path d="M778.45 -271.299L787.756 -270.834L793.339 149.799L784.499 149.334L778.45 -271.299Z" fill="#EEF1FF"/>
<path d="M495.369 11.4923L501.919 18.1033L853.955 -330.662L847.405 -337.273L495.369 11.4923Z" fill="#EEF1FF"/>
<path d="M809.818 332.7L816.368 339.311L1171.66 -12.7297L1165.11 -19.3397L809.818 332.7Z" fill="#EEF1FF"/>
<path d="M631.549 149.356L638.098 155.968L926.048 -129.226L919.499 -135.838L631.549 149.356Z" fill="#EEF1FF"/>
<path d="M775.656 149.333C782.636 142.354 794.268 142.354 801.248 149.333C808.227 156.313 808.227 167.945 801.248 174.925C794.268 181.904 782.636 181.904 775.656 174.925C768.677 167.945 768.677 156.778 775.656 149.333ZM794.733 168.876C797.991 165.619 798.456 160.035 794.733 156.313C791.476 153.056 785.893 152.59 782.17 156.313C778.913 159.57 778.448 165.154 782.17 168.876C785.427 172.133 791.476 172.133 794.733 168.876Z" fill="#EEF1FF"/>
<path d="M794.883 172.666L885.909 264.572L892.521 258.023L801.495 166.118L794.883 172.666Z" fill="#EEF1FF"/>
<path d="M712.617 229.097L719.166 235.709L782.31 173.17L775.761 166.558L712.617 229.097Z" fill="#EEF1FF"/>
<path d="M795.106 147.115L801.658 153.724L1069.66 -111.937L1063.11 -118.546L795.106 147.115Z" fill="#EEF1FF"/>
<path d="M568.287 -56.0236L776.177 153.935L782.79 147.387L574.9 -62.5714L568.287 -56.0236Z" fill="#EEF1FF"/>
<path d="M1243.55 199.633L1763.43 724.694L1770.05 718.146L1250.16 193.085L1243.55 199.633Z" fill="#EEF1FF"/>
<path d="M959.917 187.871L1627.22 861.627L1633.84 855.078L966.529 181.322L959.917 187.871Z" fill="#EEF1FF"/>
<path d="M813.024 334.863L1480.24 1008.71L1486.85 1002.17L819.637 328.315L813.024 334.863Z" fill="#EEF1FF"/>
<path d="M1160.25 -12.208L1827.46 661.643L1834.07 655.095L1166.86 -18.7557L1160.25 -12.208Z" fill="#EEF1FF"/>
<path d="M1442.9 398.269L1451.74 399.2L1457.79 819.367L1448.49 818.902L1442.9 398.269Z" fill="#EEF1FF"/>
<path d="M1159.49 680.929L1166.04 687.54L1518.07 338.774L1511.52 332.163L1159.49 680.929Z" fill="#EEF1FF"/>
<path d="M1474.19 1002.44L1480.74 1009.05L1836.03 657.014L1829.48 650.404L1474.19 1002.44Z" fill="#EEF1FF"/>
<path d="M809.715 332.592L816.265 339.202L1171.89 -13.2154L1165.34 -19.8255L809.715 332.592Z" fill="#EEF1FF"/>
<path d="M1043 564.823L1049.55 571.433L1401.54 222.618L1394.99 216.008L1043 564.823Z" fill="#EEF1FF"/>
<path d="M1271.71 344.682L1387.62 461.713L1394.24 455.164L1278.33 338.133L1271.71 344.682Z" fill="#EEF1FF"/>
<path d="M1106.73 630.512L1113.28 637.124L1401.23 351.93L1394.68 345.319L1106.73 630.512Z" fill="#EEF1FF"/>
<path d="M1295.67 819.378L1302.21 825.99L1590.16 540.796L1583.62 534.184L1295.67 819.378Z" fill="#EEF1FF"/>
<path d="M818.001 327.544L1112.54 328.939L1195.36 412.228L1188.85 418.743L1108.81 337.78L818.001 336.85L818.001 327.544Z" fill="#EEF1FF"/>
<path d="M958.009 482.084L964.559 488.695L1317.59 138.947L1311.04 132.336L958.009 482.084Z" fill="#EEF1FF"/>
<path d="M1152.41 376.569L1158.96 383.182L1361.65 182.495L1355.1 175.882L1152.41 376.569Z" fill="#EEF1FF"/>
<path d="M1177.21 126.068C1184.19 119.088 1195.83 119.088 1202.81 126.068C1209.78 133.047 1209.78 144.68 1202.81 151.659C1195.83 158.639 1184.19 158.639 1177.21 151.659C1169.77 144.215 1170.23 133.047 1177.21 126.068ZM1196.29 145.145C1199.55 141.888 1200.01 136.305 1196.29 132.582C1193.03 129.325 1187.45 128.86 1183.73 132.582C1180.47 135.839 1180.01 141.423 1183.73 145.145C1186.99 148.402 1192.57 148.402 1196.29 145.145Z" fill="#EEF1FF"/>
<path d="M1195.87 151.414L1246.63 202.656L1253.24 196.108L1202.49 144.865L1195.87 151.414Z" fill="#EEF1FF"/>
<path d="M1050.13 270.173L1056.68 276.785L1183.3 151.378L1176.75 144.766L1050.13 270.173Z" fill="#EEF1FF"/>
<path d="M1196.29 126.067L1250.73 71.6272L1257.25 78.1414L1202.81 132.582L1196.29 126.067Z" fill="#EEF1FF"/>
<path d="M1095.79 51.1554L1102.3 44.6411L1183.73 126.069L1177.21 132.583L1095.79 51.1554Z" fill="#EEF1FF"/>
<path d="M1459.22 817.142L1465.77 823.751L1733.77 558.09L1727.22 551.481L1459.22 817.142Z" fill="#EEF1FF"/>
<path d="M1232.07 613.668L1439.96 823.627L1446.57 817.079L1238.68 607.121L1232.07 613.668Z" fill="#EEF1FF"/>
<path d="M1514.21 608.765L1696.26 792.576L1702.87 786.028L1520.82 602.216L1514.21 608.765Z" fill="#EEF1FF"/>
<path d="M1223.73 -76.0519L1743.62 449.01L1750.23 442.462L1230.34 -82.5996L1223.73 -76.0519Z" fill="#EEF1FF"/>
<path d="M1360.17 -212.738L2027.39 461.113L2034 454.565L1366.79 -219.286L1360.17 -212.738Z" fill="#EEF1FF"/>
<path d="M1506.99 -359.729L2174.29 314.027L2180.91 307.478L1513.6 -366.278L1506.99 -359.729Z" fill="#EEF1FF"/>
<path d="M1159.98 -12.6838L1827.19 661.167L1833.81 654.62L1166.59 -19.2316L1159.98 -12.6838Z" fill="#EEF1FF"/>
<path d="M1550.85 243.788L1541.54 243.323L1535.96 -177.31L1545.26 -176.844L1550.85 243.788Z" fill="#EEF1FF"/>
<path d="M1475.67 303.315L1482.22 309.926L1834.26 -38.839L1827.71 -45.45L1475.67 303.315Z" fill="#EEF1FF"/>
<path d="M1592.27 419.487L1598.82 426.097L1950.81 77.2817L1944.26 70.6716L1592.27 419.487Z" fill="#EEF1FF"/>
<path d="M1599.72 186.575L1715.63 303.606L1722.25 297.058L1606.34 180.026L1599.72 186.575Z" fill="#EEF1FF"/>
<path d="M1592.13 290.082L1598.68 296.694L1886.63 11.5001L1880.08 4.88816L1592.13 290.082Z" fill="#EEF1FF"/>
<path d="M1403.2 101.215L1409.75 107.827L1697.7 -177.367L1691.15 -183.979L1403.2 101.215Z" fill="#EEF1FF"/>
<path d="M1259.62 83.9348L1266.17 90.544L1534.17 -175.117L1527.62 -181.726L1259.62 83.9348Z" fill="#EEF1FF"/>
<path d="M1546.79 -175.07L1754.68 34.8883L1761.29 28.3406L1553.4 -181.618L1546.79 -175.07Z" fill="#EEF1FF"/>
<path d="M1291.01 -143.911L1473.07 39.901L1479.68 33.3523L1297.63 -150.46L1291.01 -143.911Z" fill="#EEF1FF"/>
<path d="M-116.464 222.718L403.426 747.779L410.039 741.232L-109.851 216.17L-116.464 222.718Z" fill="#EEF1FF"/>
<path d="M-400.143 210.624L267.07 884.475L273.683 877.927L-393.53 204.076L-400.143 210.624Z" fill="#EEF1FF"/>
<path d="M-547.446 357.718L119.862 1031.47L126.474 1024.93L-540.834 351.169L-547.446 357.718Z" fill="#EEF1FF"/>
<path d="M-200.025 10.5594L467.188 684.411L473.801 677.863L-193.412 4.0117L-200.025 10.5594Z" fill="#EEF1FF"/>
<path d="M82.3584 421.534L91.6644 421.999L97.2481 842.632L88.4073 842.166L82.3584 421.534Z" fill="#EEF1FF"/>
<path d="M-200.826 704.369L-194.277 710.98L157.759 362.214L151.21 355.603L-200.826 704.369Z" fill="#EEF1FF"/>
<path d="M-317.323 587.592L-310.772 594.202L41.214 245.387L34.6635 238.777L-317.323 587.592Z" fill="#EEF1FF"/>
<path d="M-88.5562 368.16L27.355 485.191L33.9669 478.642L-81.9442 361.611L-88.5562 368.16Z" fill="#EEF1FF"/>
<path d="M-253.168 653.697L-246.62 660.309L41.3301 375.115L34.7814 368.504L-253.168 653.697Z" fill="#EEF1FF"/>
<path d="M-64.2435 842.563L-57.6948 849.175L230.255 563.981L223.706 557.369L-64.2435 842.563Z" fill="#EEF1FF"/>
<path d="M-207.878 399.368L-201.331 405.981L1.35376 205.294L-5.19396 198.681L-207.878 399.368Z" fill="#EEF1FF"/>
<path d="M99.3035 840.321L105.855 846.931L373.856 581.269L367.304 574.66L99.3035 840.321Z" fill="#EEF1FF"/>
<path d="M-127.836 636.854L80.0547 846.813L86.6676 840.265L-121.223 630.307L-127.836 636.854Z" fill="#EEF1FF"/>
<path d="M153.874 632.174L335.927 815.985L342.539 809.437L160.486 625.625L153.874 632.174Z" fill="#EEF1FF"/>
<path d="M-136.506 -52.6218L383.383 472.44L389.996 465.892L-129.893 -59.1695L-136.506 -52.6218Z" fill="#EEF1FF"/>
<path d="M-0.189133 -189.523L517.081 332.893L523.694 326.345L6.42373 -196.071L-0.189133 -189.523Z" fill="#EEF1FF"/>
<path d="M147.166 -336.66L716.818 238.659L723.431 232.112L153.779 -343.208L147.166 -336.66Z" fill="#EEF1FF"/>
<path d="M-199.928 10.4176L467.285 684.269L473.898 677.721L-193.315 3.86988L-199.928 10.4176Z" fill="#EEF1FF"/>
<path d="M190.775 266.589L181.469 266.124L175.885 -154.508L185.191 -153.578L190.775 266.589Z" fill="#EEF1FF"/>
<path d="M115.364 326.096L121.913 332.707L473.949 -16.0583L467.399 -22.6693L115.364 326.096Z" fill="#EEF1FF"/>
<path d="M-202.703 8.13445L-196.154 14.7445L159.138 -337.296L152.588 -343.906L-202.703 8.13445Z" fill="#EEF1FF"/>
<path d="M461.177 678.09L467.728 684.7L823.35 332.282L816.799 325.672L461.177 678.09Z" fill="#EEF1FF"/>
<path d="M231.949 442.913L238.499 449.523L590.485 100.708L583.935 94.0982L231.949 442.913Z" fill="#EEF1FF"/>
<path d="M239.408 210.024L355.319 327.055L361.931 320.506L246.02 203.475L239.408 210.024Z" fill="#EEF1FF"/>
<path d="M232.224 313.269L238.773 319.881L526.723 34.6868L520.174 28.0749L232.224 313.269Z" fill="#EEF1FF"/>
<path d="M43.3024 124.402L49.8511 131.014L337.801 -154.18L331.252 -160.791L43.3024 124.402Z" fill="#EEF1FF"/>
<path d="M520.673 336.384L438.314 253.095L444.829 246.581L524.861 327.544" fill="#EEF1FF"/>
<path d="M315.877 526.583L322.426 533.194L675.454 183.446L668.904 176.835L315.877 526.583Z" fill="#EEF1FF"/>
<path d="M272.041 482.703L278.589 489.316L481.273 288.628L474.725 282.015L272.041 482.703Z" fill="#EEF1FF"/>
<path d="M460.65 537.394L454.136 543.909L380.153 468.995L386.667 462.481L460.65 537.394Z" fill="#EEF1FF"/>
<path d="M428.66 511.237L435.208 517.848L780.021 176.336L773.472 169.724L428.66 511.237Z" fill="#EEF1FF"/>
<path d="M478.467 568.11L485.016 574.722L845.035 218.148L838.487 211.536L478.467 568.11Z" fill="#EEF1FF"/>
<path d="M537.425 614.169L530.911 620.684L449.948 539.256L456.463 532.742L537.425 614.169Z" fill="#EEF1FF"/>
<path d="M-100.291 107.115L-93.7393 113.724L174.262 -151.937L167.71 -158.546L-100.291 107.115Z" fill="#EEF1FF"/>
<path d="M186.623 -152.235L394.514 57.7238L401.127 51.1761L193.236 -158.782L186.623 -152.235Z" fill="#EEF1FF"/>
<path d="M-68.994 -120.828L113.059 62.9842L119.671 56.4356L-62.3821 -127.376L-68.994 -120.828Z" fill="#EEF1FF"/>
<path d="M527.944 617.176L1047.83 1142.24L1054.45 1135.69L534.557 610.629L527.944 617.176Z" fill="#EEF1FF"/>
<path d="M663.746 480.146L1331.05 1153.9L1337.67 1147.35L670.358 473.597L663.746 480.146Z" fill="#EEF1FF"/>
<path d="M811.044 333.134L1478.26 1006.99L1484.87 1000.44L817.657 326.587L811.044 333.134Z" fill="#EEF1FF"/>
<path d="M854.756 936.623L845.915 936.158L839.866 515.525L849.172 515.991L854.756 936.623Z" fill="#EEF1FF"/>
<path d="M779.472 996.192L786.021 1002.8L1138.06 654.037L1131.51 647.426L779.472 996.192Z" fill="#EEF1FF"/>
<path d="M461.338 678.203L467.887 684.813L823.179 332.773L816.629 326.163L461.338 678.203Z" fill="#EEF1FF"/>
<path d="M707.085 794.096L713.633 800.708L1001.58 515.514L995.034 508.902L707.085 794.096Z" fill="#EEF1FF"/>
<path d="M857.549 515.525C850.569 522.505 838.937 522.505 831.957 515.525C824.978 508.546 824.978 496.913 831.957 489.934C838.937 482.954 850.569 482.954 857.549 489.934C864.994 497.379 864.994 508.546 857.549 515.525ZM838.937 496.448C835.68 499.705 835.214 505.289 838.937 509.011C842.194 512.268 847.778 512.734 851.5 509.011C854.757 505.754 855.222 500.17 851.5 496.448C847.778 493.191 842.194 493.191 838.937 496.448Z" fill="#EEF1FF"/>
<path d="M740.593 406.845L831.619 498.751L838.231 492.203L747.205 400.297L740.593 406.845Z" fill="#EEF1FF"/>
<path d="M850.837 492.357L857.385 498.969L920.529 436.429L913.981 429.817L850.837 492.357Z" fill="#EEF1FF"/>
<path d="M563.49 776.814L570.042 783.423L838.042 517.762L831.491 511.152L563.49 776.814Z" fill="#EEF1FF"/>
<path d="M850.731 517.82L1058.62 727.779L1065.23 721.231L857.344 511.273L850.731 517.82Z" fill="#EEF1FF"/>
<path d="M594.786 548.968L776.838 732.779L783.45 726.231L601.398 542.419L594.786 548.968Z" fill="#EEF1FF"/>
</g>
</svg>
