<svg width="390" height="844" viewBox="0 0 390 844" fill="none" xmlns="http://www.w3.org/2000/svg">
<mask id="mask0_69_959" style="mask-type:alpha" maskUnits="userSpaceOnUse" x="0" y="0" width="390" height="844">
<rect width="390" height="844" fill="white"/>
</mask>
<g mask="url(#mask0_69_959)">
<mask id="mask1_69_959" style="mask-type:luminance" maskUnits="userSpaceOnUse" x="-18" y="-12" width="534" height="918">
<path d="M-17.9998 905.217L516 905.217L516 -12L-17.9999 -12L-17.9998 905.217Z" fill="white"/>
</mask>
<g mask="url(#mask1_69_959)">
<path d="M-17.9998 905.217L516 905.217L516 -12.0001L-17.9999 -12L-17.9998 905.217Z" fill="#D7DBF6"/>
</g>
<mask id="mask2_69_959" style="mask-type:luminance" maskUnits="userSpaceOnUse" x="-18" y="-12" width="534" height="918">
<path d="M-17.9998 905.217L516 905.217L516 -12L-17.9999 -12L-17.9998 905.217Z" fill="white"/>
</mask>
<g mask="url(#mask2_69_959)">
<path d="M-219.231 580.165L75.1426 288.691L71.4716 284.983L-222.902 576.457L-219.231 580.165Z" fill="#EEF1FF"/>
<path d="M-226.01 739.212L151.782 365.142L148.111 361.434L-229.681 735.505L-226.01 739.212Z" fill="#EEF1FF"/>
<path d="M-338.175 627.023L39.6172 252.952L35.9462 249.245L-341.846 623.315L-338.175 627.023Z" fill="#EEF1FF"/>
<path d="M-107.739 468.782L-107.478 463.565L128.348 460.434L128.087 465.391L-107.739 468.782Z" fill="#EEF1FF"/>
<path d="M50.8072 627.49L54.5137 623.818L-141.02 426.45L-144.727 430.122L50.8072 627.49Z" fill="#EEF1FF"/>
<path d="M230.891 451.196L234.597 447.524L37.2272 248.331L33.5213 252.003L230.891 451.196Z" fill="#EEF1FF"/>
<path d="M22.212 657.063L25.9189 653.392L-133.974 491.954L-137.681 495.625L22.212 657.063Z" fill="#EEF1FF"/>
<path d="M128.099 551.141L131.806 547.47L-28.0867 386.032L-31.7936 389.703L128.099 551.141Z" fill="#EEF1FF"/>
<path d="M128.088 470.348C124.174 466.435 124.174 459.913 128.088 456C132.001 452.087 138.522 452.087 142.435 456C146.348 459.913 146.348 466.435 142.435 470.348C138.522 474.261 132.261 474.261 128.088 470.348ZM139.044 459.653C137.218 457.826 134.088 457.566 132.001 459.653C130.174 461.479 129.914 464.609 132.001 466.696C133.827 468.522 136.957 468.783 139.044 466.696C140.87 464.87 140.87 461.479 139.044 459.653Z" fill="#EEF1FF"/>
<path d="M141.169 459.569L192.695 408.535L189.024 404.828L137.497 455.862L141.169 459.569Z" fill="#EEF1FF"/>
<path d="M172.806 505.691L176.513 502.02L141.451 466.618L137.744 470.29L172.806 505.691Z" fill="#EEF1FF"/>
<path d="M126.843 459.443L130.549 455.77L-18.3931 305.517L-22.0984 309.19L126.843 459.443Z" fill="#EEF1FF"/>
<path d="M12.9546 586.609L130.667 470.056L126.996 466.348L9.28367 582.901L12.9546 586.609Z" fill="#EEF1FF"/>
<path d="M-338.437 627.17L39.355 253.099L35.684 249.392L-342.108 623.462L-338.437 627.17Z" fill="#EEF1FF"/>
<path d="M36.1647 256.288L39.8706 252.616L-157.683 53.2379L-161.389 56.9099L36.1647 256.288Z" fill="#EEF1FF"/>
<path d="M0.260846 213.653L3.91308 217.305L-41.7391 262.696L-45.3913 259.044L0.260846 213.653Z" fill="#EEF1FF"/>
<path d="M156.287 208.028L450.661 -83.446L446.99 -87.1535L152.616 204.32L156.287 208.028Z" fill="#EEF1FF"/>
<path d="M149.693 367.043L527.432 -7.08032L523.76 -10.7873L146.022 363.336L149.693 367.043Z" fill="#EEF1FF"/>
<path d="M232.103 449.398L609.895 75.3273L606.224 71.6199L228.432 445.69L232.103 449.398Z" fill="#EEF1FF"/>
<path d="M37.5202 254.729L415.312 -119.342L411.641 -123.049L33.8492 251.021L37.5202 254.729Z" fill="#EEF1FF"/>
<path d="M267.652 96.2592L268.174 91.3026L503.739 87.9113L503.478 93.1287L267.652 96.2592Z" fill="#EEF1FF"/>
<path d="M426.124 255.156L429.831 251.484L234.297 54.1162L230.59 57.7882L426.124 255.156Z" fill="#EEF1FF"/>
<path d="M230.831 451.253L234.537 447.581L36.955 248.202L33.2491 251.875L230.831 451.253Z" fill="#EEF1FF"/>
<path d="M361.03 320.463L364.736 316.791L169.175 119.451L165.469 123.124L361.03 320.463Z" fill="#EEF1FF"/>
<path d="M237.608 192.235L303.221 127.25L299.55 123.543L233.937 188.528L237.608 192.235Z" fill="#EEF1FF"/>
<path d="M397.858 284.731L401.565 281.059L241.672 119.621L237.965 123.293L397.858 284.731Z" fill="#EEF1FF"/>
<path d="M503.745 178.806L507.452 175.135L347.559 13.697L343.852 17.3685L503.745 178.806Z" fill="#EEF1FF"/>
<path d="M228 446.607L228.783 281.477L275.478 235.042L279.13 238.694L233.739 283.564L233.217 446.607L228 446.607Z" fill="#EEF1FF"/>
<path d="M314.642 368.112L318.349 364.44L122.264 166.517L118.557 170.189L314.642 368.112Z" fill="#EEF1FF"/>
<path d="M255.486 259.12L259.194 255.449L146.679 141.815L142.972 145.486L255.486 259.12Z" fill="#EEF1FF"/>
<path d="M115.043 245.216C111.13 241.303 111.13 234.782 115.043 230.869C118.956 226.956 125.478 226.956 129.391 230.869C133.304 234.782 133.304 241.303 129.391 245.216C125.217 249.39 118.956 249.129 115.043 245.216ZM125.739 234.521C123.913 232.695 120.782 232.434 118.695 234.521C116.869 236.347 116.608 239.477 118.695 241.564C120.521 243.39 123.652 243.651 125.739 241.564C127.565 239.738 127.565 236.608 125.739 234.521Z" fill="#EEF1FF"/>
<path d="M129.254 234.754L157.982 206.3L154.311 202.594L125.582 231.047L129.254 234.754Z" fill="#EEF1FF"/>
<path d="M195.835 316.463L199.542 312.791L129.233 241.803L125.526 245.474L195.835 316.463Z" fill="#EEF1FF"/>
<path d="M115.043 234.52L84.5214 203.998L88.1736 200.346L118.695 230.868L115.043 234.52Z" fill="#EEF1FF"/>
<path d="M73.0446 290.868L69.3924 287.216L115.045 241.564L118.697 245.216L73.0446 290.868Z" fill="#EEF1FF"/>
<path d="M502.492 87.1132L506.197 83.4402L357.255 -66.8134L353.55 -63.1404L502.492 87.1132Z" fill="#EEF1FF"/>
<path d="M388.415 214.461L506.127 97.908L502.456 94.2005L384.744 210.753L388.415 214.461Z" fill="#EEF1FF"/>
<path d="M385.665 56.2809L488.719 -45.7861L485.047 -49.4931L381.994 52.574L385.665 56.2809Z" fill="#EEF1FF"/>
<path d="M1.72599 219.139L296.1 -72.3346L292.429 -76.0421L-1.94497 215.432L1.72599 219.139Z" fill="#EEF1FF"/>
<path d="M-74.9061 142.641L302.886 -231.429L299.215 -235.136L-78.5771 138.934L-74.9061 142.641Z" fill="#EEF1FF"/>
<path d="M-157.316 60.3312L220.422 -313.792L216.751 -317.499L-160.988 56.6242L-157.316 60.3312Z" fill="#EEF1FF"/>
<path d="M37.2535 254.879L415.045 -119.192L411.374 -122.899L33.5826 251.171L37.2535 254.879Z" fill="#EEF1FF"/>
<path d="M181.043 35.7402L180.782 40.9575L-55.0439 44.088L-54.783 38.8706L181.043 35.7402Z" fill="#EEF1FF"/>
<path d="M214.417 77.8877L218.123 74.2157L22.5892 -123.152L18.8827 -119.48L214.417 77.8877Z" fill="#EEF1FF"/>
<path d="M36.1769 256.263L39.8828 252.591L-157.487 53.3986L-161.193 57.0706L36.1769 256.263Z" fill="#EEF1FF"/>
<path d="M279.548 12.5182L283.253 8.8457L87.6917 -188.494L83.9858 -184.822L279.548 12.5182Z" fill="#EEF1FF"/>
<path d="M148.967 8.33815L214.58 -56.647L210.909 -60.3539L145.296 4.6312L148.967 8.33815Z" fill="#EEF1FF"/>
<path d="M206.998 12.5943L210.705 8.92282L50.8118 -152.515L47.1049 -148.843L206.998 12.5943Z" fill="#EEF1FF"/>
<path d="M101.11 118.517L104.817 114.846L-55.0754 -46.5923L-58.7824 -42.9208L101.11 118.517Z" fill="#EEF1FF"/>
<path d="M91.4221 199.019L95.1274 195.346L-53.8144 45.0921L-57.5198 48.7651L91.4221 199.019Z" fill="#EEF1FF"/>
<path d="M-53.788 38.0158L63.9243 -78.537L60.2534 -82.2445L-57.459 34.3084L-53.788 38.0158Z" fill="#EEF1FF"/>
<path d="M-36.3185 181.415L66.7349 79.348L63.0634 75.641L-39.9899 177.708L-36.3185 181.415Z" fill="#EEF1FF"/>
<path d="M169.23 970.512L463.604 679.038L459.933 675.331L165.559 966.804L169.23 970.512Z" fill="#EEF1FF"/>
<path d="M162.45 1129.56L540.242 755.485L536.571 751.778L158.779 1125.85L162.45 1129.56Z" fill="#EEF1FF"/>
<path d="M244.918 1212.14L622.657 838.017L618.985 834.31L241.247 1208.43L244.918 1212.14Z" fill="#EEF1FF"/>
<path d="M50.2843 1017.36L428.076 643.29L424.405 639.583L46.6133 1013.65L50.2843 1017.36Z" fill="#EEF1FF"/>
<path d="M439.266 1017.81L442.973 1014.14L247.439 816.77L243.732 820.442L439.266 1017.81Z" fill="#EEF1FF"/>
<path d="M516.744 941.235L520.451 937.564L360.558 776.126L356.851 779.797L516.744 941.235Z" fill="#EEF1FF"/>
<path d="M515.487 849.543L519.192 845.87L370.251 695.617L366.545 699.29L515.487 849.543Z" fill="#EEF1FF"/>
<path d="M14.8617 981.748L309.235 690.275L305.564 686.567L11.1908 978.041L14.8617 981.748Z" fill="#EEF1FF"/>
<path d="M-61.8917 905.323L230.999 615.317L227.328 611.61L-65.5626 901.616L-61.8917 905.323Z" fill="#EEF1FF"/>
<path d="M-144.383 822.709L178.167 503.335L174.497 499.628L-148.054 819.001L-144.383 822.709Z" fill="#EEF1FF"/>
<path d="M50.2047 1017.31L427.997 643.236L424.326 639.528L46.5337 1013.6L50.2047 1017.31Z" fill="#EEF1FF"/>
<path d="M193.826 798.26L193.565 803.477L-42.2607 806.608L-41.7389 801.39L193.826 798.26Z" fill="#EEF1FF"/>
<path d="M227.189 840.539L230.895 836.867L35.3611 639.5L31.6547 643.172L227.189 840.539Z" fill="#EEF1FF"/>
<path d="M48.9245 1018.86L52.6304 1015.19L-144.74 815.997L-148.445 819.669L48.9245 1018.86Z" fill="#EEF1FF"/>
<path d="M424.532 646.66L428.238 642.988L230.657 443.61L226.951 447.282L424.532 646.66Z" fill="#EEF1FF"/>
<path d="M292.681 775.176L296.387 771.503L100.826 574.164L97.1196 577.836L292.681 775.176Z" fill="#EEF1FF"/>
<path d="M162.113 770.994L227.726 706.009L224.055 702.302L158.442 767.287L162.113 770.994Z" fill="#EEF1FF"/>
<path d="M219.997 775.022L223.704 771.35L63.8108 609.912L60.1038 613.584L219.997 775.022Z" fill="#EEF1FF"/>
<path d="M114.109 880.94L117.816 877.268L-42.0764 715.83L-45.7833 719.502L114.109 880.94Z" fill="#EEF1FF"/>
<path d="M232.957 613.304L186.261 659.478L182.609 655.826L228.001 610.956" fill="#EEF1FF"/>
<path d="M339.59 728.122L343.297 724.45L147.212 526.527L143.506 530.199L339.59 728.122Z" fill="#EEF1FF"/>
<path d="M314.99 752.698L318.697 749.027L206.182 635.393L202.475 639.064L314.99 752.698Z" fill="#EEF1FF"/>
<path d="M345.652 646.955L349.304 650.608L307.304 692.086L303.652 688.434L345.652 646.955Z" fill="#EEF1FF"/>
<path d="M330.987 664.891L334.694 661.219L143.226 467.902L139.519 471.573L330.987 664.891Z" fill="#EEF1FF"/>
<path d="M362.873 636.967L366.58 633.295L166.668 431.451L162.961 435.123L362.873 636.967Z" fill="#EEF1FF"/>
<path d="M388.696 603.912L392.348 607.564L346.696 652.955L343.044 649.303L388.696 603.912Z" fill="#EEF1FF"/>
<path d="M104.418 961.445L108.124 957.772L-40.8183 807.518L-44.5237 811.191L104.418 961.445Z" fill="#EEF1FF"/>
<path d="M-40.9863 800.588L76.7261 684.035L73.0551 680.327L-44.6572 796.88L-40.9863 800.588Z" fill="#EEF1FF"/>
<path d="M-23.3771 943.898L79.6763 841.831L76.0048 838.124L-27.0485 940.191L-23.3771 943.898Z" fill="#EEF1FF"/>
<path d="M390.382 609.227L684.755 317.754L681.084 314.046L386.711 605.52L390.382 609.227Z" fill="#EEF1FF"/>
<path d="M313.556 533.091L691.295 158.967L687.623 155.26L309.885 529.384L313.556 533.091Z" fill="#EEF1FF"/>
<path d="M231.134 450.509L608.926 76.4383L605.255 72.7308L227.464 446.801L231.134 450.509Z" fill="#EEF1FF"/>
<path d="M569.478 426.002L569.217 430.958L333.391 434.35L333.652 429.132L569.478 426.002Z" fill="#EEF1FF"/>
<path d="M424.596 646.57L428.302 642.898L230.932 443.705L227.226 447.377L424.596 646.57Z" fill="#EEF1FF"/>
<path d="M489.571 508.793L493.278 505.121L333.385 343.684L329.678 347.355L489.571 508.793Z" fill="#EEF1FF"/>
<path d="M333.391 424.436C337.304 428.349 337.304 434.871 333.391 438.784C329.478 442.697 322.957 442.697 319.044 438.784C315.131 434.871 315.131 428.349 319.044 424.436C323.217 420.262 329.478 420.262 333.391 424.436ZM322.696 434.871C324.522 436.697 327.652 436.958 329.739 434.871C331.565 433.044 331.826 429.914 329.739 427.827C327.913 426.001 324.783 425.74 322.696 427.827C320.87 429.914 320.87 433.044 322.696 434.871Z" fill="#EEF1FF"/>
<path d="M272.46 490.007L323.987 438.973L320.315 435.266L268.789 486.3L272.46 490.007Z" fill="#EEF1FF"/>
<path d="M320.402 428.199L324.109 424.528L289.047 389.126L285.34 392.798L320.402 428.199Z" fill="#EEF1FF"/>
<path d="M479.882 589.299L483.587 585.626L334.646 435.372L330.94 439.045L479.882 589.299Z" fill="#EEF1FF"/>
<path d="M334.678 428.258L452.391 311.705L448.72 307.997L331.007 424.55L334.678 428.258Z" fill="#EEF1FF"/>
<path d="M352.141 571.753L455.194 469.686L451.523 465.979L348.47 568.046L352.141 571.753Z" fill="#EEF1FF"/>
</g>
</g>
</svg>
