<svg width="36" height="40" viewBox="0 0 36 40" fill="none" xmlns="http://www.w3.org/2000/svg">
<path fill-rule="evenodd" clip-rule="evenodd" d="M27.6272 10.126C27.6272 16.516 23.359 22 17.6754 22C11.9873 22 7.72353 16.516 7.72353 10.124C7.72353 3.736 11.3947 0 17.6754 0C23.9561 0 27.6272 3.734 27.6272 10.126ZM0.20878 36.284C1.06022 37.2 4.72692 40 17.6754 40C30.6238 40 34.2883 37.2 35.142 36.286C35.2211 36.1982 35.2796 36.0966 35.3139 35.9876C35.3481 35.8786 35.3573 35.7644 35.341 35.652C35.1464 33.888 33.3904 26 17.6754 26C1.9603 26 0.204357 33.888 0.00753128 35.652C-0.00848472 35.7645 0.00110545 35.8788 0.0357137 35.9878C0.070322 36.0968 0.129218 36.1963 0.20878 36.284Z" fill="#01A19F"/>
</svg>
