<svg width="46" height="36" viewBox="0 0 46 36" fill="none" xmlns="http://www.w3.org/2000/svg">
<path d="M0 12.4658L20.5413 22.7363C21.002 22.9667 21.5442 22.9667 22.0049 22.7363L35.9254 15.7781C36.9701 16.157 38.0975 16.3636 39.2731 16.3636C40.4217 16.3636 41.5243 16.1664 42.5488 15.8039L42.5458 29.4545C42.5458 33.0695 39.6153 36 36.0004 36H6.54581C2.93086 36 0 33.0695 0 29.4545V12.4658ZM6.54581 3.27273L30.0157 3.26674C29.6525 4.29208 29.4549 5.39568 29.4549 6.54545C29.4549 9.40191 30.6747 11.9735 32.6219 13.7676L21.2731 19.4432L0.0728067 8.84101C0.544542 5.68955 3.26294 3.27273 6.54581 3.27273ZM39.2731 0C42.888 0 45.8185 2.9305 45.8185 6.54545C45.8185 10.1604 42.888 13.0909 39.2731 13.0909C35.6581 13.0909 32.7276 10.1604 32.7276 6.54545C32.7276 2.9305 35.6581 0 39.2731 0Z" fill="#E3934E"/>
</svg>
