<svg width="106" height="17" viewBox="0 0 106 17" fill="none" xmlns="http://www.w3.org/2000/svg">
<path d="M20.6494 1.5H4.05369C3.11363 1.5 2.35156 2.30878 2.35156 3.30645V13.6935C2.35156 14.6913 3.11363 15.5 4.05369 15.5H20.6494C21.5895 15.5 22.3516 14.6913 22.3516 13.6935V3.30645C22.3516 2.30878 21.5895 1.5 20.6494 1.5Z" fill="white" stroke="black" stroke-opacity="0.2" stroke-width="0.5"/>
<path d="M4.79878 7.21708C4.37528 6.99208 3.89195 6.81111 3.35156 6.68553L3.37423 6.58773H5.58988C5.8902 6.59794 6.13389 6.68547 6.21319 6.99459L6.69471 9.21843L6.84221 9.8882L8.19087 6.58773H9.64706L7.48247 11.4227H6.0262L4.79878 7.21708ZM10.7182 11.4279H9.3411L10.2025 6.58773H11.5795L10.7182 11.4279ZM15.7104 6.70606L15.5231 7.75123L15.3986 7.69982C15.1494 7.60197 14.8205 7.50417 14.3728 7.5145C13.829 7.5145 13.5852 7.72549 13.5795 7.93149C13.5795 8.15807 13.8745 8.30741 14.3562 8.52887C15.1496 8.87386 15.5176 9.29604 15.5121 9.84703C15.5009 10.8511 14.5602 11.5 13.1152 11.5C12.4975 11.4947 11.9024 11.3761 11.5794 11.2424L11.7722 10.1558L11.9535 10.2332C12.4012 10.4136 12.6957 10.4907 13.2456 10.4907C13.642 10.4907 14.0672 10.3412 14.0726 10.017C14.0726 9.80582 13.8915 9.65123 13.3587 9.41437C12.8374 9.18257 12.1404 8.79645 12.1517 8.10128C12.1576 7.15904 13.1152 6.5 14.4752 6.5C15.0079 6.5 15.4387 6.60813 15.7104 6.70606ZM17.5407 9.71316H18.6853C18.6287 9.47117 18.3679 8.31261 18.3679 8.31261L18.2717 7.89556C18.2037 8.07575 18.0848 8.36927 18.0905 8.35894C18.0905 8.35894 17.6541 9.4351 17.5407 9.71316ZM19.2406 6.58773L20.3516 11.4278H19.0765C19.0765 11.4278 18.9517 10.8716 18.9122 10.7017H17.144C17.0929 10.8304 16.8551 11.4278 16.8551 11.4278H15.4101L17.4556 6.98932C17.5973 6.6752 17.8469 6.58773 18.1754 6.58773H19.2406Z" fill="#171E6C"/>
<path d="M47.685 1.5H31.0182C30.0978 1.5 29.3516 2.2835 29.3516 3.25V13.75C29.3516 14.7165 30.0978 15.5 31.0182 15.5H47.685C48.6054 15.5 49.3516 14.7165 49.3516 13.75V3.25C49.3516 2.2835 48.6054 1.5 47.685 1.5Z" fill="#252525"/>
<path d="M36.3515 12.5C38.5607 12.5 40.3516 10.7091 40.3516 8.5C40.3516 6.29086 38.5607 4.5 36.3515 4.5C34.1424 4.5 32.3516 6.29086 32.3516 8.5C32.3516 10.7091 34.1424 12.5 36.3515 12.5Z" fill="#EB001B"/>
<path d="M41.8516 12.5C44.3368 12.5 46.3516 10.7091 46.3516 8.5C46.3516 6.29086 44.3368 4.5 41.8516 4.5C39.3662 4.5 37.3516 6.29086 37.3516 8.5C37.3516 10.7091 39.3662 12.5 41.8516 12.5Z" fill="#F79E1B"/>
<path fill-rule="evenodd" clip-rule="evenodd" d="M38.5 6C39.4108 6.68409 40 7.77324 40 8.99999C40 10.2267 39.4108 11.3159 38.5 12C37.5892 11.3159 37 10.2267 37 8.99999C37 7.77324 37.5892 6.68409 38.5 6Z" fill="#FF5F00"/>
<path d="M74.6849 1.5H58.0183C57.0978 1.5 56.3516 2.2835 56.3516 3.25V13.75C56.3516 14.7165 57.0978 15.5 58.0183 15.5H74.6849C75.6054 15.5 76.3516 14.7165 76.3516 13.75V3.25C76.3516 2.2835 75.6054 1.5 74.6849 1.5Z" fill="#016FD0"/>
<path fill-rule="evenodd" clip-rule="evenodd" d="M67.3516 13.4884V8.5L76.3516 8.50796V9.88592L75.3114 10.9826L76.3516 12.0892V13.4963H74.6908L73.808 12.5356L72.9317 13.5L67.3516 13.4884Z" fill="#FFFFFE"/>
<path fill-rule="evenodd" clip-rule="evenodd" d="M68.3516 12.5V9.5H71.3516V10.1911H69.3229V10.6602H71.3032V11.3398H69.3229V11.8006H71.3516V12.5H68.3516Z" fill="#016FD0"/>
<path fill-rule="evenodd" clip-rule="evenodd" d="M71.3516 12.5L73.1774 10.9982L71.3516 9.5H72.7648L73.8804 10.4508L74.9992 9.5H76.3516V9.5236L74.5647 10.9982L76.3516 12.4574V12.5H74.9856L73.8501 11.5396L72.7264 12.5H71.3516Z" fill="#016FD0"/>
<path fill-rule="evenodd" clip-rule="evenodd" d="M67.6192 4.5H69.8271L70.6026 6.21085V4.5H73.3284L73.7985 5.78177L74.2701 4.5H76.3516V9.5H65.3516L67.6192 4.5Z" fill="#FFFFFE"/>
<path fill-rule="evenodd" clip-rule="evenodd" d="M68.1448 4.5L66.3516 8.5H67.5815L67.9198 7.69898H69.753L70.091 8.5H71.3516L69.5657 4.5H68.1448ZM68.2989 6.80131L68.8367 5.52796L69.3741 6.80131H68.2989Z" fill="#016FD0"/>
<path fill-rule="evenodd" clip-rule="evenodd" d="M71.3516 8.49064V4.5L73.0211 4.50587L73.8802 6.95922L74.7448 4.5H76.3516V8.49064L75.3177 8.5V5.75881L74.3416 8.49064H73.3979L72.4017 5.74945V8.49064H71.3516Z" fill="#016FD0"/>
<path d="M100.934 15.0625H100.936C101.709 15.0697 102.342 14.3865 102.352 13.535V3.03677C102.348 2.62499 102.197 2.23165 101.931 1.94345C101.666 1.65599 101.307 1.49663 100.934 1.50006L84.767 1.50005C84.3954 1.49663 84.0377 1.65599 83.7723 1.94345C83.5061 2.23165 83.3547 2.62499 83.3516 3.03499V13.5258C83.3547 13.9376 83.5061 14.3309 83.7723 14.6191C84.0377 14.9066 84.3954 15.0659 84.7687 15.0625H100.934Z" fill="white" stroke="black" stroke-opacity="0.2" stroke-width="0.5"/>
<path d="M93.3516 15.4999H101.593C102.055 15.504 102.501 15.3146 102.83 14.9732C103.16 14.6318 103.348 14.1665 103.352 13.6798V11.5C100.24 13.3801 96.8649 14.73 93.3516 15.4999Z" fill="#F27712"/>
<path d="M102.352 9.42505H101.627L100.81 8.27752H100.733V9.42505H100.142V6.575H101.014C101.697 6.575 102.091 6.87501 102.091 7.41501C102.091 7.85751 101.845 8.14252 101.402 8.23252L102.352 9.42505ZM101.479 7.43752C101.479 7.16001 101.282 7.01751 100.916 7.01751H100.733V7.88002H100.902C101.282 7.88002 101.479 7.73001 101.479 7.43752ZM98.0729 6.575H99.7479V7.05501H98.6639V7.69252H99.7052V8.18002H98.6639V8.95253H99.7479V9.43257H98.0729V6.575ZM96.1728 9.5L94.8918 6.56751H95.54L96.3485 8.48753L97.1655 6.56751H97.7983L96.5037 9.5H96.1873H96.1728ZM90.8179 9.49257C89.9173 9.49257 89.2137 8.84003 89.2137 7.99252C89.2137 7.16751 89.9309 6.5 90.8315 6.5C91.0848 6.5 91.2963 6.5525 91.5564 6.67251V7.33251C91.3594 7.12604 91.0942 7.01025 90.8179 7.01001C90.255 7.01001 89.8252 7.44501 89.8252 7.99252C89.8252 8.57002 90.2482 8.98253 90.846 8.98253C91.1129 8.98253 91.3176 8.89252 91.5564 8.66753V9.32753C91.2895 9.44753 91.0643 9.49257 90.8179 9.49257ZM89.0303 8.55503C89.0303 9.11003 88.6013 9.49257 87.9822 9.49257C87.5319 9.49257 87.2078 9.32753 86.9332 8.95253L87.3204 8.60002C87.4543 8.85502 87.6794 8.98253 87.9609 8.98253C88.2278 8.98253 88.418 8.81003 88.418 8.58502C88.418 8.45752 88.3617 8.36003 88.2423 8.28502C88.111 8.21718 87.9745 8.16196 87.8338 8.12002C87.2786 7.93252 87.0884 7.73001 87.0884 7.33251C87.0884 6.86751 87.4961 6.515 88.0308 6.515C88.3685 6.515 88.6713 6.6275 88.9246 6.83751L88.615 7.21251C88.4922 7.06912 88.3191 6.98745 88.1365 6.9875C87.8833 6.9875 87.7007 7.12251 87.7007 7.30251C87.7007 7.45252 87.8056 7.53501 88.1579 7.66251C88.8333 7.88752 89.0303 8.09752 89.0303 8.56253V8.55503ZM86.1239 6.575H86.7149V9.43257H86.1239V6.575ZM84.2241 9.43257H83.3516V6.575H84.2241C85.1811 6.575 85.8426 7.16001 85.8426 8.00002C85.8426 8.42752 85.6456 8.83253 85.3008 9.10253C85.0052 9.32753 84.6745 9.43257 84.2171 9.43257H84.2241ZM84.9138 7.28751C84.7167 7.12251 84.4915 7.06251 84.1045 7.06251H83.9427V8.95253H84.1045C84.4845 8.95253 84.7238 8.87753 84.9138 8.72752C85.1178 8.54752 85.2374 8.27752 85.2374 8.00002C85.2374 7.72252 85.1178 7.46001 84.9138 7.28751Z" fill="black"/>
<path d="M92.8516 6.5C92.0261 6.5 91.3516 7.16001 91.3516 7.97752C91.3516 8.84753 91.9961 9.5 92.8516 9.5C93.6916 9.5 94.3516 8.84003 94.3516 8.00002C94.3516 7.16001 93.6997 6.5 92.8516 6.5Z" fill="#F27712"/>
</svg>
