<svg width="34" height="18" viewBox="0 0 34 18" fill="none" xmlns="http://www.w3.org/2000/svg">
<g clip-path="url(#clip0_80_64)">
<mask id="mask0_80_64" style="mask-type:luminance" maskUnits="userSpaceOnUse" x="1" y="2" width="24" height="16">
<path d="M24.9868 2.06735H1.47656V17.496H24.9868V2.06735Z" fill="white"/>
</mask>
<g mask="url(#mask0_80_64)">
<path opacity="0.2" d="M17.4047 2.06735H2.94595C2.27003 2.06735 1.47656 2.84613 1.47656 3.53674V14.5571C1.47656 15.2478 2.27003 16.0265 2.94595 16.0265H21.3133C21.9892 16.0265 22.7827 15.2478 22.7827 14.5571V9.0249C22.1638 9.58165 21.3994 9.9511 20.5786 10.0902V10.149C20.5786 10.6339 20.3141 10.8837 19.8439 10.8837H3.68065C3.21044 10.8837 2.94595 10.6339 2.94595 10.149V9.41429C2.94595 8.92939 3.21044 8.6796 3.68065 8.6796H16.5598C16.1357 8.2096 15.8182 7.6535 15.629 7.04938C15.4398 6.44525 15.3834 5.80738 15.4636 5.17942C15.5439 4.55147 15.7589 3.94827 16.0939 3.41114C16.4289 2.874 16.8761 2.41561 17.4047 2.06735Z" fill="#697386"/>
<path d="M15.6856 4.27144H1.47656V6.47552H15.4945C15.3711 5.73648 15.4368 4.97822 15.6856 4.27144Z" fill="#697386"/>
</g>
<path d="M21.4966 10.7857C19.6868 10.7857 17.9512 10.2439 16.6715 9.27941C15.3918 8.31493 14.6729 7.00683 14.6729 5.64286C14.6729 4.27889 15.3918 2.97078 16.6715 2.00631C17.9512 1.04184 19.6868 0.5 21.4966 0.5C23.3063 0.5 25.042 1.04184 26.3216 2.00631C27.6013 2.97078 28.3202 4.27889 28.3202 5.64286C28.3202 7.00683 27.6013 8.31493 26.3216 9.27941C25.042 10.2439 23.3063 10.7857 21.4966 10.7857ZM18.7866 3.51224H18.0165L16.1351 4.23224V4.96694L17.6266 4.37918V7.77347H18.7964V3.51224H18.7866ZM21.0287 4.1C21.5843 4.1 21.9742 4.3351 21.9742 4.67306C21.9742 5.04041 21.5161 5.29755 20.8532 5.29755H20.5608V5.92204H20.9117C21.6136 5.92204 22.0912 6.18653 22.0912 6.56857C22.0912 6.93592 21.6233 7.18571 20.9604 7.18571C20.473 7.18571 19.9856 7.06816 19.4787 6.84041V7.5751C20.0246 7.75143 20.5705 7.84694 21.1067 7.84694C22.3837 7.84694 23.261 7.35469 23.261 6.64204C23.261 6.14245 22.8516 5.73837 22.1692 5.57673C22.7541 5.4298 23.1343 5.04041 23.1343 4.59959C23.1343 3.90898 22.3252 3.43878 21.1554 3.43878C20.6281 3.44318 20.1074 3.52816 19.6249 3.68857V4.40857C20.0929 4.2102 20.5705 4.1 21.0287 4.1ZM25.2398 5.70163C25.9515 5.70163 26.4486 6.01755 26.4486 6.42898C26.4486 6.86245 25.9515 7.16367 25.2398 7.16367C24.8109 7.16367 24.3625 7.06082 23.9044 6.84776V7.60449C24.382 7.76612 24.8694 7.84694 25.3471 7.84694C25.6005 7.84694 25.8345 7.81755 26.0587 7.77347C26.5656 7.14898 26.858 6.42898 26.858 5.65755L26.8385 5.34898C26.4761 5.18729 26.0606 5.10581 25.6395 5.11388C25.4641 5.11388 25.2788 5.12122 25.0839 5.14327V4.18816H26.4876C26.3659 3.953 26.2158 3.72675 26.0392 3.51224H24.0701V5.82653C24.46 5.75306 24.8499 5.70163 25.2398 5.70163Z" fill="#697386"/>
</g>
<defs>
<clipPath id="clip0_80_64">
<rect width="33" height="17" fill="white" transform="translate(0.587891 0.5)"/>
</clipPath>
</defs>
</svg>
