<svg width="453" height="236" viewBox="0 0 453 236" fill="none" xmlns="http://www.w3.org/2000/svg">
<path fill-rule="evenodd" clip-rule="evenodd" d="M194.306 212.274C190.005 214.069 185.945 216.378 181.957 218.79C164.044 229.63 142.441 235.822 118.254 235.822C48.3298 235.822 0 184.065 0 117.911C0 51.7575 48.3298 0 118.254 0C144.928 0 168.459 7.53158 187.364 20.5208C192.302 23.9135 197.4 27.1069 202.928 29.4154L205.547 30.5089C218.893 36.0816 233.892 36.2037 247.327 30.8488C252.928 28.6164 258.054 25.3846 262.951 21.866C282.172 8.053 306.393 0 333.975 0C403.899 0 452.229 51.7575 452.229 117.911C452.229 184.065 403.899 235.822 333.975 235.822C309.033 235.822 286.839 229.237 268.606 217.762C263.751 214.707 258.782 211.806 253.454 209.682L251.384 208.857C235.348 202.466 217.447 202.611 201.517 209.263L194.306 212.274ZM183.595 119.044C183.595 154.529 154.829 183.296 119.344 183.296C83.8588 183.296 55.0925 154.529 55.0925 119.044C55.0925 83.5593 83.8588 54.793 119.344 54.793C154.829 54.793 183.595 83.5593 183.595 119.044ZM336.192 183.296C371.677 183.296 400.444 154.529 400.444 119.044C400.444 83.5593 371.677 54.793 336.192 54.793C300.707 54.793 271.941 83.5593 271.941 119.044C271.941 154.529 300.707 183.296 336.192 183.296Z" fill="url(#paint0_linear_351_4)"/>
<defs>
<linearGradient id="paint0_linear_351_4" x1="0" y1="235.822" x2="100.02" y2="-103.744" gradientUnits="userSpaceOnUse">
<stop stop-color="#9E65D3"/>
<stop offset="1" stop-color="#6E65D3"/>
</linearGradient>
</defs>
</svg>
