<svg width="42" height="43" viewBox="0 0 42 43" fill="none" xmlns="http://www.w3.org/2000/svg">
<path d="M39.3969 21.0013L41.7181 16.9897C42.2984 15.9825 41.9536 14.6979 40.9507 14.1176L36.9348 11.7963V7.17071C36.9348 6.00799 35.995 5.06815 34.8322 5.06815H30.2087L27.8896 1.05436C27.61 0.572875 27.1495 0.219645 26.6133 0.0745679C26.0751 -0.0726113 25.5011 0.00518374 25.0175 0.284824L21.0016 2.60605L16.9857 0.282721C15.9786 -0.299688 14.6939 0.047235 14.1136 1.05226L11.7924 5.06815H7.16888C6.00616 5.06815 5.06632 6.00799 5.06632 7.17071V11.7942L1.05043 14.1155C0.566839 14.3951 0.215712 14.8556 0.0727377 15.3938C-0.0702363 15.9342 0.00545563 16.5061 0.282993 16.9897L2.60422 21.0013L0.282993 25.013C0.00335306 25.4966 -0.0723388 26.0706 0.0706353 26.611C0.213609 27.1492 0.564737 27.6097 1.04833 27.8872L5.06421 30.2085V34.832C5.06421 35.9947 6.00406 36.9345 7.16677 36.9345H11.7924L14.1136 40.9504C14.3933 41.4319 14.8537 41.783 15.392 41.9302C15.5707 41.9765 15.7515 42.0017 15.9344 42.0017C16.3003 42.0017 16.664 41.905 16.9878 41.7179L20.9995 39.3966L25.0154 41.7179C25.4969 41.9975 26.073 42.0711 26.6112 41.9281C27.1495 41.7851 27.61 41.434 27.8875 40.9504L30.2066 36.9345H34.8301C35.9929 36.9345 36.9327 35.9947 36.9327 34.832V30.2085L40.9486 27.8872C41.9536 27.3048 42.2984 26.0181 41.716 25.013L39.3969 21.0013ZM15.7431 10.4675C17.484 10.4675 18.897 11.8804 18.897 13.6214C18.897 15.3623 17.484 16.7752 15.7431 16.7752C14.0022 16.7752 12.5893 15.3623 12.5893 13.6214C12.5893 11.8804 14.0022 10.4675 15.7431 10.4675ZM16.3739 30.6521L13.0098 28.1311L25.6251 11.3106L28.9892 13.8316L16.3739 30.6521ZM26.2559 31.4931C24.515 31.4931 23.1021 30.0802 23.1021 28.3393C23.1021 26.5984 24.515 25.1854 26.2559 25.1854C27.9968 25.1854 29.4097 26.5984 29.4097 28.3393C29.4097 30.0802 27.9968 31.4931 26.2559 31.4931Z" fill="#E3934E"/>
</svg>
