<svg width="124" height="20" viewBox="0 0 124 20" fill="none" xmlns="http://www.w3.org/2000/svg">
<path d="M9.27133 19.2473C13.6243 19.2473 16.9032 17.345 16.9032 13.5403C16.9032 10.4349 14.8963 8.72843 10.7694 7.80523L8.53641 7.30167C6.67083 6.88203 5.56845 6.51834 5.56845 5.48324C5.56845 4.81182 6.27511 4.47612 7.26442 4.47612C9.29959 4.47612 11.7305 5.56717 13.2286 7.13381L16.3662 3.13328C14.4723 1.28688 11.5609 0 7.85802 0C3.64635 0 0.339195 2.01425 0.339195 5.81895C0.339195 9.37187 3.05275 10.7986 6.30337 11.4141L8.19721 11.7778C10.7129 12.2534 11.674 12.729 11.674 13.6801C11.674 14.4635 10.8542 14.7712 9.55399 14.7712C7.34922 14.7712 4.74873 13.792 3.16582 11.8897L0 15.9462C2.14823 18.1842 5.59672 19.2473 9.27133 19.2473Z" fill="white"/>
<path d="M23.5668 18.9675V14.1837H26.4782C31.34 14.1837 34.8733 12.2254 34.8733 7.18976C34.8733 2.18211 31.2834 0.223806 26.4782 0.223806H18.4788V18.9675H23.5668ZM26.5347 4.69992C28.5133 4.69992 29.5027 5.53919 29.5027 7.18976C29.5027 8.81236 28.5133 9.70758 26.5347 9.70758H23.5668V4.69992H26.5347Z" fill="white"/>
<path d="M46.5428 18.9675V12.9807L53.9203 0.223806H47.6452L45.7796 4.36421L44.1119 8.67248L42.4442 4.36421L40.6069 0.223806H34.1622L41.4549 12.9248V18.9675H46.5428Z" fill="white"/>
<path d="M64.4455 18.9675V4.69992H69.9009V0.223806H53.9022V4.69992H59.3576V18.9675H64.4455Z" fill="white"/>
<path d="M124 18.9675V14.4914H114.87V0.223806H109.782V18.9675H124Z" fill="white"/>
<path fill-rule="evenodd" clip-rule="evenodd" d="M86.6255 17.6084C86.1882 17.7909 85.7761 18.0271 85.3673 18.2665C83.9098 19.12 82.165 19.6058 80.2176 19.6058C74.4392 19.6058 70.4453 15.3287 70.4453 9.86185C70.4453 4.39505 74.4392 0.11792 80.2176 0.11792C82.4218 0.11792 84.3663 0.740292 85.9286 1.81366C86.3367 2.09403 86.758 2.35792 87.2148 2.54869L87.4312 2.63905C88.5342 3.0996 89.7737 3.10968 90.884 2.66714C91.3469 2.48266 91.7705 2.21558 92.1752 1.92481C93.7635 0.783377 95.7651 0.11792 98.0444 0.11792C103.823 0.11792 107.817 4.39506 107.817 9.86186C107.817 15.3287 103.823 19.6058 98.0444 19.6058C96.0005 19.6058 94.1799 19.0707 92.6803 18.1371C92.2528 17.8709 91.8166 17.6155 91.3487 17.429C89.9405 16.8678 88.3685 16.8806 86.9696 17.4647L86.6255 17.6084ZM85.6173 9.9555C85.6173 12.8879 83.2401 15.2651 80.3077 15.2651C77.3753 15.2651 74.9981 12.8879 74.9981 9.9555C74.9981 7.02309 77.3753 4.6459 80.3077 4.6459C83.2401 4.6459 85.6173 7.02309 85.6173 9.9555ZM93.0376 8.82905L92.9483 9.38372C92.9282 9.57156 92.9179 9.76232 92.9179 9.9555C92.9179 10.1486 92.9282 10.3394 92.9483 10.5272L93.0377 11.0821C93.5543 13.4734 95.6817 15.2651 98.2275 15.2651C101.16 15.2651 103.537 12.8879 103.537 9.9555C103.537 7.02309 101.16 4.6459 98.2275 4.6459C95.6816 4.6459 93.5542 6.43772 93.0376 8.82905Z" fill="white"/>
</svg>
