<svg width="24" height="17" viewBox="0 0 24 17" fill="none" xmlns="http://www.w3.org/2000/svg">
<path d="M1.43677 13.4014C1.43677 15.0583 2.77991 16.4014 4.43677 16.4014L20.7044 16.4014C22.3612 16.4014 23.7044 15.0583 23.7044 13.4014L23.7044 3.59859C23.7044 1.94174 22.3612 0.598592 20.7044 0.598591L4.43677 0.598589C2.77992 0.598588 1.43677 1.94173 1.43677 3.59859L1.43677 13.4014Z" fill="#ED2939"/>
<path d="M7.90161 16.4014L15.803 16.4014L15.803 0.598589L7.90161 0.598588L7.90161 16.4014Z" fill="white"/>
<path d="M5.24537e-07 13.4014C2.34843e-07 15.0583 1.34315 16.4014 3 16.4014L7.90141 16.4014L7.90141 0.598586L3 0.598585C1.34315 0.598584 2.52821e-06 1.94173 2.23852e-06 3.59858L5.24537e-07 13.4014Z" fill="#002395"/>
</svg>
