<svg width="38" height="45" viewBox="0 0 38 45" fill="none" xmlns="http://www.w3.org/2000/svg">
<path d="M34 15.75C34 7.0515 27.0604 0 18.5 0C9.93957 0 3 7.0515 3 15.75C3 18.8708 3.90786 21.7733 5.44679 24.2213H5.42907C10.6548 32.535 18.5 45 18.5 45L31.5709 24.2213H31.5554C33.0921 21.7733 34 18.8708 34 15.75ZM18.5 22.5C14.8309 22.5 11.8571 19.4783 11.8571 15.75C11.8571 12.0218 14.8309 9 18.5 9C22.1691 9 25.1429 12.0218 25.1429 15.75C25.1429 19.4783 22.1691 22.5 18.5 22.5Z" fill="#9E65D3"/>
</svg>
