<svg width="42" height="42" viewBox="0 0 42 42" fill="none" xmlns="http://www.w3.org/2000/svg">
<path d="M21 14C17.1325 14 14 17.1325 14 21C14 24.8675 17.1325 28 21 28C24.8675 28 28 24.8675 28 21C28 17.1325 24.8675 14 21 14ZM36.645 19.25C35.84 11.9525 30.0475 6.16 22.75 5.355V1.75H19.25V5.355C11.9525 6.16 6.16 11.9525 5.355 19.25H1.75V22.75H5.355C6.16 30.0475 11.9525 35.84 19.25 36.645V40.25H22.75V36.645C30.0475 35.84 35.84 30.0475 36.645 22.75H40.25V19.25H36.645ZM21 33.25C14.2275 33.25 8.75 27.7725 8.75 21C8.75 14.2275 14.2275 8.75 21 8.75C27.7725 8.75 33.25 14.2275 33.25 21C33.25 27.7725 27.7725 33.25 21 33.25Z" fill="#9E65D3"/>
</svg>
