<svg width="18" height="19" viewBox="0 0 18 19" fill="none" xmlns="http://www.w3.org/2000/svg">
<path d="M8.52447 1.96353C8.67415 1.50287 9.32585 1.50287 9.47553 1.96353L10.9084 6.37336C10.9753 6.57937 11.1673 6.71885 11.3839 6.71885H16.0207C16.505 6.71885 16.7064 7.33866 16.3146 7.62336L12.5633 10.3488C12.3881 10.4761 12.3148 10.7018 12.3817 10.9078L13.8145 15.3176C13.9642 15.7783 13.437 16.1613 13.0451 15.8766L9.29389 13.1512C9.11865 13.0239 8.88135 13.0239 8.70611 13.1512L4.95488 15.8766C4.56303 16.1613 4.03578 15.7783 4.18546 15.3176L5.6183 10.9078C5.68524 10.7018 5.61191 10.4761 5.43667 10.3488L1.68544 7.62336C1.29358 7.33866 1.49497 6.71885 1.97933 6.71885H6.6161C6.83272 6.71885 7.02469 6.57937 7.09163 6.37336L8.52447 1.96353Z" fill="#D9D9D9"/>
<path fill-rule="evenodd" clip-rule="evenodd" d="M9.00014 1.61792C8.7998 1.61792 8.59945 1.73308 8.52461 1.96341L7.09177 6.37324C7.02483 6.57925 6.83286 6.71873 6.61624 6.71873H1.97947C1.49511 6.71873 1.29372 7.33854 1.68558 7.62324L5.43681 10.3487C5.61205 10.476 5.68538 10.7017 5.61844 10.9077L4.1856 15.3175C4.03592 15.7782 4.56317 16.1612 4.95502 15.8765L8.70625 13.1511C8.79387 13.0874 8.897 13.0556 9.00014 13.0556V1.61792Z" fill="#9E65D3"/>
</svg>
