<svg width="49" height="34" viewBox="0 0 49 34" fill="none" xmlns="http://www.w3.org/2000/svg">
<path d="M24.5 0C13.3636 0 3.85318 7.04933 0 17C3.85318 26.9507 13.3636 34 24.5 34C35.6364 34 45.1468 26.9507 49 17C45.1468 7.04933 35.6364 0 24.5 0ZM24.5 28.3333C18.3527 28.3333 13.3636 23.256 13.3636 17C13.3636 10.744 18.3527 5.66667 24.5 5.66667C30.6473 5.66667 35.6364 10.744 35.6364 17C35.6364 23.256 30.6473 28.3333 24.5 28.3333ZM24.5 10.2C20.8027 10.2 17.8182 13.2373 17.8182 17C17.8182 20.7627 20.8027 23.8 24.5 23.8C28.1973 23.8 31.1818 20.7627 31.1818 17C31.1818 13.2373 28.1973 10.2 24.5 10.2Z" fill="#01A19F"/>
</svg>
