<svg width="119" height="119" viewBox="0 0 119 119" fill="none" xmlns="http://www.w3.org/2000/svg">
<path opacity="0.26" d="M68.9656 109.511C96.5902 104.279 114.743 77.6432 109.511 50.0187C104.279 22.3941 77.6432 4.24142 50.0187 9.47348C22.3941 14.7055 4.24142 41.3411 9.47348 68.9656C14.7055 96.5902 41.3411 114.743 68.9656 109.511Z" fill="url(#paint0_linear_69_1393)"/>
<path opacity="0.26" d="M53.285 26.7213C71.6827 23.2368 88.887 35.4626 92.2626 53.2854C95.7471 71.683 83.5213 88.8874 65.6985 92.263C47.8758 95.6386 30.2054 84.0966 26.7209 65.6989C23.2364 47.3012 34.8873 30.2058 53.285 26.7213Z" fill="url(#paint1_linear_69_1393)"/>
<g filter="url(#filter0_d_69_1393)">
<path d="M56.2263 42.2443C65.4252 40.5021 74.8897 46.4517 76.7409 56.2254C78.592 65.9992 72.5335 74.8888 62.7598 76.74C53.5609 78.4822 44.0964 72.5326 42.2452 62.7589C40.3941 52.9851 47.0275 43.9866 56.2263 42.2443Z" fill="url(#paint2_linear_69_1393)"/>
</g>
<defs>
<filter id="filter0_d_69_1393" x="37.9341" y="41.9425" width="43.1387" height="43.0993" filterUnits="userSpaceOnUse" color-interpolation-filters="sRGB">
<feFlood flood-opacity="0" result="BackgroundImageFix"/>
<feColorMatrix in="SourceAlpha" type="matrix" values="0 0 0 0 0 0 0 0 0 0 0 0 0 0 0 0 0 0 127 0" result="hardAlpha"/>
<feOffset dy="4"/>
<feGaussianBlur stdDeviation="2"/>
<feComposite in2="hardAlpha" operator="out"/>
<feColorMatrix type="matrix" values="0 0 0 0 0 0 0 0 0 0 0 0 0 0 0 0 0 0 0.25 0"/>
<feBlend mode="normal" in2="BackgroundImageFix" result="effect1_dropShadow_69_1393"/>
<feBlend mode="normal" in="SourceGraphic" in2="effect1_dropShadow_69_1393" result="shape"/>
</filter>
<linearGradient id="paint0_linear_69_1393" x1="50.0187" y1="9.47348" x2="68.9656" y2="109.511" gradientUnits="userSpaceOnUse">
<stop stop-color="#9E65D3"/>
<stop offset="1" stop-color="#8165D3"/>
</linearGradient>
<linearGradient id="paint1_linear_69_1393" x1="53.285" y1="26.7213" x2="65.6985" y2="92.263" gradientUnits="userSpaceOnUse">
<stop stop-color="#9E65D3"/>
<stop offset="1" stop-color="#8165D3"/>
</linearGradient>
<linearGradient id="paint2_linear_69_1393" x1="46.1958" y1="80.4727" x2="74.158" y2="39.4436" gradientUnits="userSpaceOnUse">
<stop stop-color="#B17BE3"/>
<stop offset="1" stop-color="#8165D3"/>
</linearGradient>
</defs>
</svg>
